<?xml version="1.0" encoding="UTF-8" standalone="no"?>
<!-- Created with Inkscape (http://www.inkscape.org/) -->

<svg
   width="360.00003"
   height="359.07831"
   viewBox="0 0 360.00003 359.07831"
   version="1.1"
   id="svg1"
   xml:space="preserve"
   xmlns:inkscape="http://www.inkscape.org/namespaces/inkscape"
   xmlns:sodipodi="http://sodipodi.sourceforge.net/DTD/sodipodi-0.dtd"
   xmlns="http://www.w3.org/2000/svg"
   xmlns:svg="http://www.w3.org/2000/svg"><sodipodi:namedview
     id="namedview1"
     pagecolor="#ffffff"
     bordercolor="#000000"
     borderopacity="0.25"
     inkscape:showpageshadow="2"
     inkscape:pageopacity="0.0"
     inkscape:pagecheckerboard="0"
     inkscape:deskcolor="#d1d1d1"
     inkscape:document-units="px"
     inkscape:zoom="1.6218646"
     inkscape:cx="331.40868"
     inkscape:cy="218.57558"
     inkscape:window-width="1920"
     inkscape:window-height="1009"
     inkscape:window-x="-8"
     inkscape:window-y="-8"
     inkscape:window-maximized="1"
     inkscape:current-layer="layer4" /><defs
     id="defs1" /><g
     inkscape:label="Layer 1"
     inkscape:groupmode="layer"
     id="layer1"
     transform="translate(-142.32883,-58.556953)"><rect
       style="font-variation-settings:normal;opacity:1;vector-effect:none;fill:#0797d4;fill-opacity:1;fill-rule:evenodd;stroke-width:2.26026;stroke-linecap:butt;stroke-linejoin:miter;stroke-miterlimit:4;stroke-dasharray:none;stroke-dashoffset:0;stroke-opacity:1;-inkscape-stroke:none;stop-color:#000000;stop-opacity:1"
       id="rect23"
       width="360"
       height="141.95134"
       x="142.32883"
       y="274.95956"
       inkscape:export-filename="blackXstreamLogo.svg"
       inkscape:export-xdpi="300"
       inkscape:export-ydpi="300" /><rect
       style="font-variation-settings:normal;opacity:1;vector-effect:none;fill:#215cae;fill-opacity:1;fill-rule:evenodd;stroke-width:2.79074;stroke-linecap:butt;stroke-linejoin:miter;stroke-miterlimit:4;stroke-dasharray:none;stroke-dashoffset:0;stroke-opacity:1;-inkscape-stroke:none;stop-color:#000000;stop-opacity:1"
       id="rect22"
       width="360"
       height="216.4026"
       x="142.32883"
       y="58.556953" /></g><g
     inkscape:groupmode="layer"
     id="layer4"
     inkscape:label="Layer 2"
     transform="translate(-142.32883,-58.556953)"><g
       id="g46"
       transform="matrix(1.0012835,0,0,1,-140.48117,-26.549462)"><path
         style="fill:#25262a;stroke:none;stroke-width:1.09582"
         d="M 282.90776,85.106415 V 444.18472 H 641.98603 V 85.106415 H 282.90776 M 398.97701,245.00849 v 10.51987 h 10.87053 v 7.36391 c -2.26539,0 -8.64654,-1.0995 -10.30829,0.56225 -1.00829,1.0083 -0.56224,3.40228 -0.56224,4.69768 0,3.7921 -1.2247,10.41068 2.16891,13.09655 2.62064,2.07409 5.76853,0.81271 8.70162,0.57929 0,1.81663 0.78561,6.03013 -0.3604,7.50436 -0.7994,1.02833 -3.04101,0.84589 -4.19821,0.96971 -4.79897,0.51345 -10.06927,-0.37981 -13.04458,-4.61704 -4.22142,-6.01188 -0.72682,-14.05274 -2.20328,-20.68719 -0.59345,-2.66662 -3.29469,-2.10561 -5.44122,-2.10561 v -7.71457 h 5.25994 v -10.16921 h 9.11722 m -18.23445,14.02649 -4.55861,6.66259 c -3.35204,-1.58333 -5.73252,-4.23843 -9.81854,-3.75447 -2.08134,0.24652 -6.27526,1.99244 -3.70523,4.61084 1.4816,1.50947 4.19854,1.59352 6.15986,1.92079 5.21255,0.86976 11.34458,2.06454 12.73586,8.09337 1.57625,6.83028 -3.07903,12.34938 -9.57989,13.67449 -7.18506,1.46457 -14.80589,-0.47469 -20.33842,-5.25859 0.96269,-1.53907 3.30591,-5.39696 5.26507,-5.59789 1.25826,-0.12905 2.5045,1.327 3.50149,1.92352 2.8317,1.69425 11.38172,4.0193 12.59489,-0.88559 0.54823,-2.21648 -2.11987,-3.3793 -3.82833,-3.75447 -4.72597,-1.03775 -11.31925,-0.89076 -14.33928,-5.36654 -4.44878,-6.59323 -0.042,-14.24475 6.97537,-16.21435 6.97708,-1.95828 13.06798,0.32515 18.93576,3.9463 m 67.32718,16.48113 c 1.82779,5.36781 6.9229,8.99947 12.62385,6.97672 1.64882,-0.58503 3.60948,-3.05462 5.25993,-3.04717 1.71295,0.008 4.23547,3.11632 5.6106,4.13569 -1.60679,3.44323 -5.93759,5.53402 -9.46788,6.4418 -10.85581,2.79142 -21.97681,-4.11609 -23.08419,-15.55902 -1.47227,-15.21356 17.0448,-26.81683 29.04516,-15.74706 3.50961,3.23742 5.09409,7.25326 5.75835,11.88977 0.17092,1.19303 0.69893,3.65348 -0.40776,4.54888 -1.31615,1.06484 -5.12686,0.36039 -6.75295,0.36039 h -18.58511 m 56.80731,-16.83179 v -3.15596 h 8.4159 v 34.36491 h -8.4159 v -3.15596 c -3.6147,1.79822 -5.92041,3.85211 -10.16921,3.85729 -2.98329,0.003 -6.12012,-0.45547 -8.76656,-1.93866 -15.94033,-8.93367 -8.12316,-37.37433 10.87053,-34.01695 3.27249,0.57845 5.43139,2.18509 8.06524,4.04533 m 43.48212,1.05199 h 0.35067 c 5.30336,-7.46643 18.99976,-7.31577 23.40211,1.05198 4.29797,8.16939 2.19624,20.13107 2.19624,29.10498 h -8.76656 v -11.57186 c 0,-3.7839 0.81339,-8.92206 -1.33908,-12.27292 -3.20883,-4.99529 -10.24688,-4.05843 -12.35243,1.40239 -1.76423,4.57561 -0.68565,10.94307 -0.68565,15.77981 0,1.51476 0.62394,4.8575 -0.36039,6.10034 -1.18555,1.49686 -6.95326,0.56224 -8.75683,0.56224 v -17.53312 c 0,-3.60494 -0.35926,-7.09395 -3.85729,-9.08585 -3.73862,-2.1289 -8.13231,0.44369 -9.43243,4.17658 -2.27638,6.53584 -0.73678,15.57759 -0.73678,22.44239 h -9.11722 v -34.36491 h 8.76656 v 3.50662 c 5.09017,-6.14908 16.22518,-6.41174 20.68908,0.70133 m -111.51062,-4.90928 v 8.4159 c -2.47943,0 -5.04604,-0.23208 -7.36391,0.82497 -8.25119,3.76292 -5.6106,18.49879 -5.6106,25.82537 h -8.76656 v -34.36491 l 8.4159,-0.35066 0.35066,5.25993 c 3.86626,-4.42503 7.2027,-5.6106 12.97451,-5.6106 m 11.57185,14.37716 h 16.48114 c -1.39057,-9.27706 -15.96995,-9.85446 -16.48114,0 m 44.88479,-6.47697 c -11.8962,2.74525 -7.61084,22.5131 4.55861,19.61545 11.82619,-2.81592 7.48554,-22.39488 -4.55861,-19.61545 m -67.32718,60.47898 c -5.10572,7.09774 -16.69803,5.54639 -19.60165,-2.8053 -2.15013,-6.1844 1.215,-13.06782 7.67913,-14.64395 2.9812,-0.7269 9.73739,-0.34062 11.1595,3.17761 0.49788,1.23174 -1.18818,2.80943 -2.36156,2.78719 -2.38198,-0.0451 -3.77356,-2.82649 -6.69396,-2.47686 -6.19289,0.74148 -8.397,8.82131 -3.84214,12.83059 5.07625,4.46821 9.05662,-2.5637 13.66068,1.13072 m 28.75432,3.85728 h -4.55861 l -1.40265,-4.55861 -10.51987,-0.35066 c -1.32309,3.91097 -2.06007,5.25947 -6.31193,5.25994 1.67641,-5.86424 4.80779,-12.03455 7.45455,-17.53312 1.0804,-2.2445 2.1212,-4.59133 5.13249,-3.99636 1.79171,0.35399 2.56385,3.59155 3.19277,5.04834 2.2781,5.27685 5.4244,10.61302 7.01325,16.13047 m 20.68908,-10.87053 c 4.23876,2.03398 4.83095,7.86911 0.34552,10.16921 -3.66318,1.87845 -9.65053,0.70132 -13.67069,0.70132 v -21.3904 c 3.35988,0.0694 8.87004,-0.73544 11.92252,0.47133 4.5841,1.81235 4.92528,7.1057 1.40265,10.04854 m 15.77981,-10.16921 v 17.53312 h 10.1692 v 3.50662 h -13.67583 v -21.03974 h 3.50663 m 32.96225,0 -0.35066,3.50663 h -10.87053 v 5.25993 h 10.51986 v 3.50662 h -10.51986 v 5.25994 c 4.14629,0 11.21698,-1.90823 11.22119,3.50662 H 509.085 v -15.42914 l 0.61095,-5.25019 3.94766,-0.36041 h 10.51986 m -58.20995,3.50663 v 5.25993 c 1.89549,0 4.51741,0.46469 6.29651,-0.2603 1.97772,-0.80592 2.22049,-3.52079 0.32793,-4.58619 -1.72268,-0.96978 -4.70316,-0.41344 -6.62444,-0.41344 m -22.79305,1.05198 -3.15596,8.06524 h 6.66258 l -3.50662,-8.06524 m 22.79305,7.36391 c 0,1.39183 -0.54444,4.25656 0.3604,5.39902 2.91398,3.67917 12.73619,-2.75143 6.64608,-4.92768 -0.76666,-0.27396 -1.63942,-0.38547 -2.44787,-0.43968 -1.50762,-0.10103 -3.04536,0.003 -4.55861,-0.0317 z"
         id="path6" /><g
         id="g32"
         transform="matrix(2.0847468,0,0,1.9659338,200.97276,164.0397)"
         style="display:inline"><path
           style="fill:#a0d3ea"
           d="m 61.067914,59.823388 c 0.752653,-0.0676 1.904653,-0.06665 2.56,0.0021 l 1.191542,0.125019 -2.56,-0.0021 -2.56,-0.0021 z m -13.688868,-11.509731 -0.15959,-8.38445 0.245617,0.246067 0.245618,0.246067 -0.08603,8.138383 -0.08603,8.138382 z m 10.199592,0.304449 -0.439182,-0.56 0.56,0.439183 c 0.308,0.24155 0.56,0.49355 0.56,0.56 0,0.263371 -0.26278,0.09386 -0.680818,-0.439183 z m 7.04,-3.52 -0.439182,-0.56 0.56,0.439183 c 0.308,0.24155 0.56,0.49355 0.56,0.56 0,0.263371 -0.26278,0.09386 -0.680818,-0.439183 z"
           id="path39" /><path
           style="fill:#77c5e7"
           d="m 48.579456,64.941179 c 1.1,-0.06249 2.9,-0.06249 4,0 l 2,0.113612 h -4 -4 z m 21.84,0.02451 c 0.792,-0.05338 2.77233,-0.135426 4.400734,-0.18232 l 2.960735,-0.08526 -7.35e-4,0.24 -7.34e-4,0.24 -4.4,-0.05768 c -2.42,-0.03172 -3.752,-0.101356 -2.96,-0.15474 z"
           id="path38" /><path
           style="fill:#53b7e1"
           d="m 66.389052,48.458106 -0.609596,-0.72 0.72,0.609596 c 0.676622,0.57287 0.865677,0.830404 0.609596,0.830404 -0.06072,0 -0.384722,-0.324 -0.72,-0.72 z m -2.713816,-2.72 -0.77578,-0.88 0.88,0.775781 c 0.484,0.426679 0.88,0.822679 0.88,0.88 0,0.250968 -0.259136,0.04671 -0.98422,-0.775781 z m -7.376598,0 -0.439182,-0.56 0.56,0.439183 c 0.308,0.24155 0.56,0.49355 0.56,0.56 0,0.263371 -0.26278,0.09386 -0.680818,-0.439183 z m 9.734126,-10.557599 c 1.195319,-0.06174 3.067319,-0.06128 4.16,0.001 l 1.986692,0.113266 -4.16,-10e-4 -4.16,-0.001 z"
           id="path37" /><path
           style="fill:#8ba1be"
           d="m 79.206826,42.458106 c 0,-8.008 0.04154,-11.284 0.09232,-7.28 0.05078,4.004 0.05078,10.556 0,14.56 -0.05078,4.004 -0.09232,0.728 -0.09232,-7.28 z"
           id="path36" /><path
           style="fill:#0797d4;stroke:#000000;stroke-opacity:1"
           d="m 46.792789,64.597635 c 0.500488,-1.222151 9.386528,-17.019529 9.573501,-17.019529 0.564712,0 5.093166,5.945677 5.093166,6.68712 0,0.182494 -1.099907,2.316549 -2.444238,4.742344 l -2.444238,4.410536 -0.773607,0.72 -0.773606,0.72 H 50.854945 46.686122 Z M 67.72955,64.138106 c -0.255563,-0.396 -0.916904,-1.872 -1.469646,-3.28 C 61.74501,49.357322 51.292632,39.110203 40.900422,35.996621 c -1.596945,-0.478457 -1.51898,-0.681391 0.507159,-1.320075 6.054766,-1.908597 20.686174,7.472268 29.161867,18.697006 l 2.32224,3.075447 2.283884,4.033731 c 1.256136,2.218552 2.283884,4.110601 2.283884,4.204554 0,0.09395 -2.084681,0.170822 -4.632623,0.170822 H 68.19421 Z M 65.116098,45.310851 c -0.339153,-0.375556 -1.552642,-1.41289 -2.696642,-2.305189 -1.144,-0.892298 -2.20099,-1.724719 -2.348866,-1.849823 l -0.268865,-0.227464 1.497501,-2.596225 1.497501,-2.596224 0.691364,-0.171399 c 0.380251,-0.09427 2.432293,-0.129778 4.560094,-0.07891 l 3.86873,0.09249 -2.801606,5.110959 c -3.052621,5.568884 -3.097292,5.620509 -3.999211,4.621786 z"
           id="path35" /><path
           style="fill:#476999"
           d="m 48.659456,57.267432 c -0.44,-0.07894 -0.90787,-0.246394 -1.03971,-0.372132 l -0.23971,-0.228613 1.11971,0.130719 1.11971,0.13072 v 0.28499 c 0,0.156745 -0.036,0.26538 -0.08,0.241412 -0.044,-0.02397 -0.44,-0.108161 -0.88,-0.187096 z m 13.2,-0.30991 c 0.308,-0.08049 0.812,-0.08049 1.12,0 l 0.56,0.146344 h -1.12 -1.12 z m 13.62,0.002 c 0.231,-0.09244 0.507,-0.08107 0.613333,0.02526 l 0.193333,0.193333 -0.613333,-0.02526 -0.613333,-0.02526 z m 1.167116,-14.501404 c 0,-7.832 0.04165,-11.036 0.09256,-7.12 0.05091,3.916 0.05091,10.324 0,14.24 -0.05091,3.916 -0.09256,0.712 -0.09256,-7.12 z"
           id="path34" /><path
           style="fill:#194480;stroke:#000000;stroke-opacity:1"
           d="m 46.541262,59.127038 -0.998193,-0.608676 -0.361807,-1.037879 -0.361806,-1.037879 v -8.592249 c 0,-4.725737 0.06711,-8.592249 0.149143,-8.592249 0.08203,0 0.655688,0.241555 1.274798,0.536788 l 1.125654,0.536787 0.0852,8.343213 0.0852,8.343212 0.88,0.101256 c 1.038515,0.119494 1.023837,0.0554 0.340732,1.487888 l -0.539268,1.130856 -0.340732,-0.0012 c -0.187403,-6.58e-4 -0.789919,-0.2751 -1.338926,-0.609872 z m 14.028639,-0.666467 0.729555,-1.277535 0.980732,-0.0025 0.980732,-0.0025 0.539268,1.130857 c 0.296597,0.621971 0.539268,1.197971 0.539268,1.28 0,0.08203 -1.0123,0.149143 -2.249555,0.149143 h -2.249555 z m 15.345018,-0.06494 -0.647386,-1.022476 0.695961,-0.346909 0.695962,-0.346909 0.077,-14.070615 0.077,-14.070615 -0.296845,-0.466277 -0.296845,-0.466278 -12.629395,4.065806 -12.629395,4.065807 -1.653972,-0.766296 -1.653971,-0.766297 0.263214,-0.157839 c 0.586572,-0.351744 27.521558,-8.868626 28.047393,-8.868626 0.312182,0 0.964417,0.205201 1.449413,0.456002 l 0.881809,0.456001 0.382299,0.839056 0.3823,0.839055 v 14.840391 14.840391 l -0.828446,0.984552 c -0.455646,0.541504 -1.017505,0.984552 -1.248576,0.984552 H 76.56231 Z"
           id="path33" /><path
           id="rect6"
           style="display:inline;opacity:1;vector-effect:none;fill:#000000;fill-rule:evenodd;stroke-width:0.299526;stop-color:#000000;stop-opacity:1"
           d="m 70.841466,45.971322 h 16.280428 v 18.129695 h -8.14021 l -5.243215,-6.312161 -4.313362,-4.663724 z"
           sodipodi:nodetypes="ccccccc" /><path
           style="fill:#215cae;fill-opacity:1;stroke:none;stroke-width:1.09582"
           d="m 380.74256,259.03498 -4.55861,6.66259 c -3.35204,-1.58333 -5.73252,-4.23843 -9.81854,-3.75447 -2.08134,0.24652 -6.27526,1.99244 -3.70523,4.61084 1.4816,1.50947 4.19854,1.59352 6.15986,1.92079 5.21255,0.86976 11.34458,2.06454 12.73586,8.09337 1.57625,6.83028 -3.07903,12.34938 -9.57989,13.67449 -7.18506,1.46457 -14.80589,-0.47469 -20.33842,-5.25859 0.96269,-1.53907 3.30591,-5.39696 5.26507,-5.59789 1.25826,-0.12905 2.5045,1.327 3.50149,1.92352 2.8317,1.69425 11.38172,4.0193 12.59489,-0.88559 0.54823,-2.21648 -2.11987,-3.3793 -3.82833,-3.75447 -4.72597,-1.03775 -11.31925,-0.89076 -14.33928,-5.36654 -4.44878,-6.59323 -0.042,-14.24475 6.97537,-16.21435 6.97708,-1.95828 13.06798,0.32515 18.93576,3.9463"
           id="path25"
           transform="matrix(0.47967456,0,0,0.50866413,-96.40152,-83.441111)" /></g></g></g></svg>
